<svg width="19" height="19" viewBox="0 0 19 19" fill="none" xmlns="http://www.w3.org/2000/svg">
<path d="M5.80258 8.24295L5.3132 9.6897H4.06445L6.1592 4.0647H7.6037L9.68945 9.6897H8.37658L7.8872 8.24295H5.80258ZM7.64083 7.41495L6.87695 5.1402H6.82183L6.05795 7.41495H7.64195H7.64083Z" fill="#010100"/>
<path d="M0.689453 2.9397C0.689453 2.34296 0.926506 1.77066 1.34846 1.34871C1.77042 0.92675 2.34272 0.689697 2.93945 0.689697L10.8145 0.689697C11.4112 0.689697 11.9835 0.92675 12.4054 1.34871C12.8274 1.77066 13.0645 2.34296 13.0645 2.9397V6.3147H16.4395C17.0362 6.3147 17.6085 6.55175 18.0304 6.97371C18.4524 7.39566 18.6895 7.96796 18.6895 8.5647V16.4397C18.6895 17.0364 18.4524 17.6087 18.0304 18.0307C17.6085 18.4526 17.0362 18.6897 16.4395 18.6897H8.56445C7.96772 18.6897 7.39542 18.4526 6.97346 18.0307C6.55151 17.6087 6.31445 17.0364 6.31445 16.4397V13.0647H2.93945C2.34272 13.0647 1.77042 12.8276 1.34846 12.4057C0.926506 11.9837 0.689453 11.4114 0.689453 10.8147V2.9397ZM2.93945 1.8147C2.64108 1.8147 2.35494 1.93322 2.14396 2.1442C1.93298 2.35518 1.81445 2.64133 1.81445 2.9397V10.8147C1.81445 11.1131 1.93298 11.3992 2.14396 11.6102C2.35494 11.8212 2.64108 11.9397 2.93945 11.9397H10.8145C11.1128 11.9397 11.399 11.8212 11.6099 11.6102C11.8209 11.3992 11.9395 11.1131 11.9395 10.8147V2.9397C11.9395 2.64133 11.8209 2.35518 11.6099 2.1442C11.399 1.93322 11.1128 1.8147 10.8145 1.8147H2.93945ZM10.9697 13.0591C11.1868 13.3977 11.422 13.7149 11.6785 14.0108C10.837 14.6577 9.79633 15.1369 8.56445 15.4643C8.7647 15.7084 9.07183 16.1787 9.18883 16.4397C10.4545 16.0358 11.5288 15.4902 12.4356 14.7589C13.3097 15.5071 14.392 16.0696 15.7318 16.4149C15.8815 16.1292 16.1976 15.6578 16.4395 15.4137C15.1738 15.1291 14.1253 14.6329 13.267 13.9692C14.0331 13.1288 14.6417 12.1118 15.0906 10.8676H16.4395V9.6897H13.0645V10.8676H13.9251C13.5673 11.8171 13.0926 12.6068 12.4941 13.2638C12.3288 13.0877 12.1729 12.903 12.0272 12.7103C11.7097 12.9139 11.346 13.0338 10.9697 13.0591Z" fill="#010100"/>
</svg>
